<?xml version="1.0" standalone="no"?>
<!DOCTYPE svg PUBLIC "-//W3C//DTD SVG 20010904//EN"
 "http://www.w3.org/TR/2001/REC-SVG-20010904/DTD/svg10.dtd">
<svg version="1.0" xmlns="http://www.w3.org/2000/svg"
 width="300.000000pt" height="241.000000pt" viewBox="0 0 300.000000 241.000000"
 preserveAspectRatio="xMidYMid meet">
<metadata>
Created by potrace 1.10, written by Peter Selinger 2001-2011
</metadata>
<g transform="translate(0.000000,241.000000) scale(0.100000,-0.100000)"
fill="#000000" stroke="none">
<path d="M1332 2325 c-153 -28 -305 -88 -418 -166 -26 -18 -44 -26 -39 -18 4
8 -3 3 -16 -11 -13 -14 -19 -19 -14 -10 26 39 -121 -99 -167 -158 -75 -97 -75
-97 -60 -88 11 7 11 4 1 -12 -7 -12 -18 -18 -24 -15 -5 4 -7 3 -3 -1 3 -4 -16
-53 -42 -109 -27 -56 -61 -147 -76 -202 -25 -90 -27 -117 -28 -272 -1 -147 -3
-173 -16 -173 -8 0 -24 -7 -34 -15 -42 -32 5 -196 94 -324 48 -70 53 -89 13
-52 -12 11 -23 17 -27 14 -3 -3 -23 2 -46 11 -62 25 -114 21 -134 -9 -15 -23
-15 -28 -1 -55 9 -17 19 -30 24 -30 4 0 25 -11 45 -25 47 -32 46 -21 -4 39
-22 26 -40 52 -40 57 0 16 97 -8 182 -43 49 -21 55 -38 13 -38 -13 0 -27 -4
-30 -10 -9 -14 4 -13 58 6 26 9 47 20 47 24 0 5 -16 36 -36 70 -107 183 -166
381 -99 332 6 -4 21 -43 33 -87 25 -87 98 -243 136 -290 42 -52 36 -22 -10 50
-60 95 -144 309 -114 290 18 -11 10 18 -12 42 -19 20 -22 37 -26 158 -5 154 8
262 45 380 78 248 253 466 481 599 317 187 738 183 1062 -8 349 -206 557 -619
511 -1015 -9 -79 -17 -111 -32 -127 -10 -11 -19 -25 -19 -31 0 -6 -7 -24 -15
-39 -8 -16 -15 -37 -15 -47 0 -26 -23 -30 -65 -13 -34 15 -36 18 -30 48 10 47
-9 25 -35 -41 -21 -55 -20 -85 1 -37 7 14 16 26 20 26 17 0 79 -34 79 -43 0
-15 -68 -139 -93 -171 l-24 -30 -36 23 c-42 26 -43 28 -22 57 8 12 12 24 8 27
-9 10 -41 -36 -35 -52 3 -9 1 -12 -6 -7 -6 3 -18 -4 -26 -16 -24 -34 -19 -44
9 -18 l25 24 28 -27 c23 -22 33 -25 57 -18 17 4 35 6 42 4 29 -10 153 238 169
335 5 31 11 42 25 42 15 0 17 -6 12 -38 -9 -62 -43 -152 -96 -252 -28 -52 -55
-98 -60 -101 -5 -3 9 -9 30 -12 21 -3 46 -8 56 -12 10 -4 17 -3 17 4 0 6 -11
11 -25 11 -14 0 -25 4 -25 8 0 16 145 72 187 72 21 0 23 -2 12 -23 -6 -12 -25
-37 -42 -55 -36 -37 -29 -41 22 -10 64 38 79 78 42 112 -25 23 -74 15 -153
-23 l-58 -28 22 36 c71 117 118 234 118 291 0 26 -26 60 -46 60 -5 0 -9 84
-10 198 0 185 -2 203 -27 287 -15 50 -50 136 -76 192 -27 56 -46 105 -43 109
4 4 1 4 -5 0 -9 -5 -13 0 -13 13 0 11 -9 25 -20 31 -11 6 -18 15 -14 21 9 15
-191 213 -206 204 -8 -5 -11 -4 -6 3 7 12 -32 38 -53 33 -7 -1 -10 2 -6 9 3 6
3 10 -2 9 -21 -4 -34 2 -27 13 4 6 3 8 -3 5 -6 -4 -41 9 -79 28 -203 100 -452
138 -662 100z m1168 -1427 c-31 -85 -117 -244 -127 -234 -3 2 5 19 16 35 29
40 94 181 117 251 10 30 19 49 21 44 2 -6 -10 -49 -27 -96z"/>
<path d="M1319 2294 c-434 -78 -780 -445 -840 -890 -13 -98 -7 -282 11 -328
14 -37 22 -29 11 12 -9 31 -9 31 37 41 49 10 62 4 62 -31 0 -10 5 -18 10 -18
10 0 9 19 -7 110 l-7 35 -5 -35 c-6 -34 -8 -35 -53 -38 l-48 -3 0 120 c0 134
-3 129 69 115 27 -6 31 -11 32 -38 0 -26 2 -28 8 -11 14 36 22 125 11 125 -5
0 -10 -11 -10 -24 0 -33 -11 -38 -60 -30 l-42 7 7 45 c8 52 43 173 54 185 6 6
76 -16 89 -28 1 -1 -2 -14 -7 -29 -20 -51 7 -25 32 32 26 61 25 95 -2 45 l-16
-30 -37 17 c-21 9 -41 19 -44 23 -8 8 105 207 118 207 5 0 25 -12 43 -26 33
-25 34 -27 18 -50 -32 -50 -3 -34 37 20 42 55 52 87 15 46 -24 -26 -33 -25
-72 8 l-32 28 87 87 88 88 32 -40 c31 -38 31 -39 12 -56 -38 -34 -20 -36 25
-4 56 40 80 67 50 55 -44 -18 -50 -16 -72 19 -13 19 -23 37 -23 39 0 6 190
116 201 116 5 0 18 -19 28 -42 l18 -43 -31 -17 c-48 -26 -6 -21 58 7 63 28 72
39 22 30 -32 -6 -34 -5 -50 35 -9 24 -16 44 -14 45 4 5 231 65 234 62 1 -1 5
-23 8 -50 7 -47 7 -47 -23 -53 -17 -4 -31 -11 -31 -16 0 -5 8 -7 18 -4 9 2 41
8 70 11 28 4 52 11 52 17 0 5 -12 7 -29 3 -26 -6 -29 -4 -35 32 -3 21 -6 43
-6 49 0 16 116 27 185 19 l56 -7 -3 -47 c-3 -43 -5 -46 -30 -43 -14 1 -29 -2
-33 -8 -3 -5 2 -10 12 -11 10 0 42 -4 71 -8 54 -8 73 3 24 14 -27 5 -28 8 -23
48 5 34 10 43 29 45 21 3 200 -42 211 -53 2 -3 -4 -25 -13 -49 -16 -42 -19
-44 -42 -36 -31 12 -34 12 -34 1 0 -11 118 -56 126 -48 3 3 -5 11 -18 18 -12
6 -24 13 -26 14 -7 6 31 85 40 85 6 0 55 -26 109 -57 l98 -57 -17 -29 c-27
-45 -39 -52 -67 -37 -46 24 -35 5 22 -39 30 -23 57 -40 60 -37 3 3 -5 14 -17
24 l-24 19 32 43 31 43 88 -88 87 -87 -40 -34 -39 -33 -22 24 c-12 14 -24 21
-27 17 -6 -10 40 -62 49 -54 4 4 5 2 4 -3 -5 -14 20 -55 33 -55 6 0 3 12 -7
27 -18 27 -18 27 16 55 18 15 38 28 44 28 5 0 36 -46 67 -103 l57 -102 -32
-17 c-45 -24 -62 -22 -76 8 -23 51 -23 14 0 -45 25 -63 45 -83 34 -32 -5 26
-3 30 35 45 22 9 42 16 44 16 14 0 69 -227 57 -234 -3 -2 -25 -7 -47 -10 -40
-7 -41 -7 -48 25 -11 55 -18 24 -11 -45 7 -66 25 -92 25 -37 0 26 4 30 41 36
22 4 42 5 45 3 2 -2 7 -57 10 -122 l7 -117 -54 3 -54 3 3 35 c3 24 0 32 -6 25
-6 -5 -14 -39 -17 -75 -5 -47 -4 -61 4 -50 6 8 11 23 11 34 0 12 5 16 16 12 9
-3 25 -6 37 -6 41 0 50 -13 38 -55 -9 -34 -9 -37 4 -24 21 21 35 200 25 312
-25 257 -122 460 -309 648 -198 198 -450 300 -733 298 -62 0 -147 -7 -189 -15z"/>
<path d="M1410 2245 c0 -32 2 -35 30 -35 23 0 30 -5 30 -19 0 -21 -14 -26
-102 -36 -54 -7 -58 -6 -58 13 0 14 9 22 28 27 25 5 27 9 24 40 -2 19 -9 35
-16 35 -14 0 -187 -48 -192 -53 -2 -2 1 -18 7 -36 9 -26 15 -30 33 -25 35 11
40 10 44 -9 3 -13 -10 -23 -50 -41 -84 -37 -95 -39 -102 -19 -4 10 -3 19 2 21
5 1 17 9 27 16 16 12 16 15 1 44 l-16 31 -88 -50 c-48 -28 -89 -52 -90 -54 -2
-2 4 -17 14 -34 17 -29 19 -30 42 -15 21 14 26 14 39 1 13 -12 6 -20 -49 -65
-55 -44 -65 -49 -78 -36 -13 12 -12 17 7 35 l21 22 -21 29 -21 28 -77 -76 -77
-77 26 -23 27 -23 23 22 c19 18 24 19 37 6 12 -12 7 -23 -36 -77 -42 -52 -53
-61 -65 -51 -13 10 -12 15 1 35 19 30 20 27 -14 52 l-30 22 -50 -89 c-28 -49
-51 -91 -51 -94 0 -4 14 -13 30 -22 29 -15 31 -15 42 10 12 26 32 33 43 14 11
-17 -48 -150 -65 -146 -10 2 -14 13 -12 35 2 27 -2 34 -24 42 -14 6 -29 10
-34 10 -7 0 -31 -78 -56 -183 -6 -28 -6 -28 32 -25 32 2 40 7 42 26 2 14 10
22 24 22 19 0 20 -4 13 -67 -9 -84 -13 -93 -37 -93 -17 0 -20 5 -15 29 6 27 4
29 -29 33 -19 2 -37 2 -39 -1 -3 -2 -5 -51 -5 -108 0 -108 1 -109 47 -97 14 4
23 15 25 32 3 29 32 42 41 19 3 -7 8 -43 12 -79 6 -55 5 -66 -10 -71 -12 -5
-19 1 -27 24 -10 28 -14 30 -41 25 -17 -3 -32 -8 -34 -10 -3 -2 5 -36 17 -76
12 -40 24 -70 26 -67 3 3 -2 29 -10 58 -21 68 -20 79 3 79 12 0 23 -11 29 -30
10 -28 12 -29 42 -18 30 10 32 13 27 47 -4 20 -9 60 -13 89 -6 51 -7 52 -40
52 -31 0 -34 -3 -34 -30 0 -23 -4 -30 -20 -30 -19 0 -20 7 -20 91 0 81 2 90
17 87 12 -2 19 -14 21 -36 3 -29 6 -32 37 -32 l33 0 7 65 c4 36 10 64 12 61 3
-2 2 -34 -2 -70 l-7 -66 -44 0 c-42 0 -44 1 -44 30 0 17 -4 30 -10 30 -6 0
-10 -30 -10 -70 0 -40 4 -70 10 -70 6 0 10 14 10 31 0 29 1 30 42 27 l43 -3
14 -98 c7 -55 9 -103 5 -107 -5 -5 -25 -11 -45 -15 -34 -6 -36 -5 -42 24 -4
17 -11 31 -17 31 -6 0 -9 -8 -6 -17 3 -10 12 -44 21 -76 9 -31 20 -55 25 -52
5 3 5 16 0 31 -6 14 -10 27 -10 28 0 7 82 27 88 22 6 -7 82 -189 79 -191 -1
-1 -19 -11 -39 -23 l-38 -21 -15 30 c-9 16 -20 27 -25 24 -5 -3 7 -33 27 -68
45 -76 42 -72 49 -64 4 4 -1 18 -11 33 -19 29 -18 29 36 59 24 13 28 12 43 -4
23 -25 20 -38 -4 -16 -18 17 -21 17 -45 1 -25 -17 -26 -18 -10 -43 16 -23 15
-25 -2 -38 -10 -7 -21 -11 -25 -9 -5 3 -8 1 -8 -5 0 -20 18 -20 44 0 26 20 26
22 10 46 -13 21 -14 27 -3 34 22 14 25 12 73 -53 36 -48 43 -64 34 -75 -9 -11
-15 -10 -34 8 -23 21 -24 21 -51 4 -18 -12 -23 -20 -14 -23 7 -2 18 1 24 7 8
8 17 5 34 -11 l24 -22 25 25 25 26 -41 52 c-23 29 -40 55 -37 57 5 5 87 -99
87 -111 0 -5 -9 -19 -21 -31 -12 -13 -16 -24 -11 -28 6 -3 20 6 31 20 l20 26
81 -62 c44 -35 80 -67 80 -72 0 -5 -7 -20 -16 -34 -9 -13 -13 -28 -10 -32 7
-7 18 5 41 43 9 15 19 13 102 -21 66 -27 93 -43 97 -58 5 -19 7 -19 18 -5 10
12 24 15 58 10 l45 -5 -50 -7 c-39 -4 -30 -6 45 -7 52 0 104 -2 115 -3 11 -1
45 1 75 5 43 6 52 5 40 -4 -13 -10 -12 -11 3 -6 10 3 36 6 58 6 21 0 39 3 39
8 0 4 -19 7 -42 5 l-43 -2 45 8 c36 6 47 5 57 -8 11 -14 12 -14 13 4 0 16 20
28 93 58 50 20 95 37 98 37 4 0 12 -13 19 -30 7 -16 19 -30 27 -30 11 0 10 8
-7 36 -12 19 -21 37 -19 39 2 2 40 31 83 64 l80 61 21 -20 c20 -19 45 -27 45
-15 0 3 -11 16 -25 28 l-26 22 52 68 c29 37 54 65 56 63 3 -2 -17 -32 -43 -65
l-47 -61 23 -25 c22 -24 24 -24 43 -7 10 9 21 16 23 15 2 -2 14 -3 26 -3 l22
0 -22 16 c-22 15 -25 15 -46 -5 -20 -19 -25 -20 -36 -7 -10 13 -5 26 31 76 55
75 85 77 65 5 -4 -14 2 -25 20 -38 25 -18 26 -18 39 0 7 10 32 52 54 94 l41
76 -26 11 c-36 17 -43 15 -56 -13 -9 -19 -14 -22 -29 -15 -17 9 -16 15 13 85
31 77 34 80 56 67 10 -7 10 -15 3 -36 -10 -24 -8 -28 16 -37 14 -5 29 -12 33
-14 5 -3 11 2 14 11 3 8 2 13 -2 11 -4 -3 -17 -1 -29 4 -20 7 -21 12 -13 35
12 31 14 28 -27 42 -35 12 -27 23 -83 -119 l-18 -46 29 -17 c29 -17 29 -17 41
8 12 27 24 31 46 17 10 -6 3 -25 -28 -79 -39 -68 -61 -85 -75 -62 -4 6 0 22 9
35 14 22 14 24 -10 40 -14 9 -32 14 -40 11 -15 -6 -20 9 -5 19 10 6 81 -32 81
-44 0 -3 -7 -16 -15 -28 -9 -13 -11 -24 -6 -28 12 -7 82 115 74 128 -3 6 -13
-4 -22 -21 l-16 -31 -35 21 c-19 12 -37 23 -39 24 -2 2 66 179 75 192 1 2 21
-2 44 -8 41 -11 42 -12 36 -46 -11 -55 10 -39 23 19 6 28 14 62 17 75 4 13 2
22 -5 22 -6 0 -11 -8 -11 -17 0 -37 -14 -45 -58 -33 l-42 11 5 47 c4 43 3 41
-10 -15 -71 -305 -321 -566 -620 -648 -91 -24 -283 -31 -381 -12 -325 62 -588
308 -675 632 -31 113 -31 307 0 420 41 152 131 307 241 413 152 148 339 228
555 239 363 18 701 -204 839 -551 40 -99 55 -186 57 -316 1 -63 3 -104 6 -90
14 97 10 90 58 90 45 0 45 0 45 -36 0 -22 4 -33 11 -29 6 5 8 31 5 72 -6 70
-16 98 -16 45 0 -31 -1 -32 -44 -32 -49 0 -48 -3 -61 105 -3 28 -8 62 -11 76
-5 24 -1 27 38 37 45 12 58 5 58 -30 0 -10 5 -18 10 -18 13 0 13 -1 -6 75 -9
36 -21 65 -26 65 -5 0 -7 -13 -3 -30 6 -26 3 -31 -20 -40 -45 -17 -62 -12 -74
22 -14 41 -7 48 9 8 11 -25 16 -29 39 -24 39 10 41 12 30 41 -7 20 -6 28 3 35
26 16 34 6 52 -64 10 -40 21 -78 23 -84 2 -6 -5 -14 -17 -17 -17 -4 -24 1 -32
25 -8 24 -15 29 -32 24 -11 -3 -26 -6 -32 -6 -7 0 -8 -19 -3 -62 17 -131 16
-128 55 -128 34 0 35 1 32 33 -2 27 1 33 20 35 21 3 22 1 22 -88 0 -89 -1 -91
-22 -88 -19 2 -22 8 -20 35 3 32 3 33 -30 26 -18 -3 -34 -7 -36 -8 -2 -2 -9
-41 -16 -88 l-12 -85 33 -10 c32 -10 34 -9 40 19 3 18 12 29 23 29 28 0 29 -9
10 -78 -24 -85 -18 -92 9 -11 25 75 26 95 5 103 -34 13 -51 6 -57 -23 -5 -24
-10 -28 -27 -24 -18 5 -21 11 -16 37 3 17 8 52 12 79 5 37 10 47 25 47 14 0
19 -7 19 -29 0 -21 6 -30 23 -35 47 -12 47 -12 47 105 0 97 -2 110 -16 105 -9
-3 -24 -6 -35 -6 -14 0 -19 -7 -19 -30 0 -23 -5 -30 -19 -30 -15 0 -20 12 -29
72 -6 39 -9 75 -6 80 11 17 34 7 40 -17 5 -21 12 -25 40 -25 41 0 42 5 14 109
-28 102 -29 104 -68 90 -28 -10 -30 -13 -21 -36 7 -20 6 -28 -3 -35 -21 -13
-28 -5 -59 67 -22 52 -26 71 -16 77 19 12 25 10 39 -16 12 -23 15 -24 46 -11
38 16 39 9 -35 137 l-39 67 -28 -22 c-26 -21 -27 -25 -15 -50 11 -24 11 -30
-2 -38 -15 -9 -33 8 -85 83 -22 31 -24 41 -14 52 10 13 15 12 33 -10 l22 -24
30 24 30 25 -77 77 -77 78 -20 -25 c-26 -30 -26 -44 -2 -61 15 -11 17 -17 7
-30 -10 -14 -18 -11 -71 28 -33 25 -61 51 -63 59 -5 22 17 28 43 11 23 -15 25
-14 46 16 13 17 19 33 13 35 -5 2 -47 26 -94 53 l-85 49 -15 -30 c-13 -29 -13
-31 14 -52 24 -20 26 -25 13 -35 -11 -10 -24 -8 -63 9 -27 11 -59 24 -71 29
-34 14 -19 44 18 36 30 -6 49 13 49 48 0 15 -82 45 -161 60 -32 6 -37 4 -43
-16 -10 -39 -7 -46 24 -53 32 -7 35 -12 21 -33 -8 -13 -47 -12 -133 4 -40 8
-39 44 1 44 29 0 41 14 41 51 0 18 -8 19 -105 19 l-105 0 0 -35z m188 3 c-2
-17 -11 -24 -31 -26 -25 -3 -28 -7 -25 -35 l3 -32 85 -12 c46 -6 86 -10 88 -9
1 2 7 17 11 34 9 29 7 31 -20 37 -26 6 -39 31 -24 47 10 9 157 -36 162 -50 9
-22 -11 -34 -39 -23 -23 9 -26 7 -35 -24 l-11 -34 75 -31 c41 -17 81 -34 88
-36 8 -4 20 7 30 25 15 30 15 31 -10 43 -26 12 -30 24 -17 45 5 8 30 -1 86
-34 72 -42 77 -46 62 -61 -13 -14 -20 -14 -36 -4 -28 17 -35 15 -49 -15 -12
-26 -10 -30 19 -54 17 -15 51 -40 74 -57 l43 -31 22 25 23 26 -21 22 c-17 19
-19 25 -8 39 11 16 18 11 75 -46 61 -61 62 -64 44 -80 -18 -17 -20 -16 -36 9
l-18 26 -24 -23 c-13 -12 -24 -26 -24 -29 0 -4 23 -38 52 -76 28 -38 52 -70
53 -72 1 -1 16 5 33 15 30 17 30 18 14 46 -15 24 -15 29 -2 37 8 5 17 10 20
10 3 0 25 -33 48 -72 38 -67 40 -74 24 -86 -14 -11 -19 -10 -29 4 -7 9 -14 22
-16 27 -2 7 -14 7 -35 -2 -18 -7 -32 -15 -32 -16 0 -2 9 -25 20 -51 11 -26 19
-49 17 -51 -7 -6 -47 99 -41 108 3 5 19 16 36 25 29 15 32 15 44 -1 7 -10 15
-23 17 -29 2 -6 8 -8 12 -4 9 8 -56 120 -74 126 -9 3 -8 -3 4 -21 9 -15 14
-31 10 -37 -10 -17 -67 -42 -75 -33 -4 4 -33 41 -65 81 l-57 74 28 29 c33 35
47 36 66 7 8 -12 17 -17 21 -12 3 6 -18 35 -48 64 -36 36 -55 49 -55 38 0 -9
9 -23 20 -31 19 -13 19 -14 -14 -46 l-33 -32 -81 62 -81 61 20 39 c22 45 22
44 53 23 13 -8 27 -11 30 -6 6 10 -116 82 -128 74 -5 -3 3 -11 18 -19 14 -7
26 -18 26 -24 0 -20 -31 -69 -43 -69 -12 0 -177 67 -185 75 -2 2 2 22 9 44 12
40 13 41 48 35 57 -10 24 10 -46 29 -73 20 -73 20 -73 8 0 -5 14 -12 30 -16
33 -7 36 -16 19 -64 -12 -35 -8 -34 -129 -17 l-85 11 0 45 c0 44 1 45 35 51
22 4 6 6 -45 6 -44 0 -65 -2 -47 -4 31 -4 32 -6 32 -52 l0 -48 -57 -6 c-32 -4
-79 -9 -104 -13 -45 -6 -46 -5 -53 22 -4 16 -9 36 -12 46 -3 12 3 18 26 23 16
4 30 11 30 17 0 6 -6 8 -12 5 -7 -2 -39 -10 -70 -17 -59 -13 -84 -38 -28 -26
27 5 32 2 41 -21 19 -51 10 -62 -87 -103 l-92 -38 -23 41 c-13 23 -18 42 -12
44 20 7 48 32 42 38 -8 7 -129 -64 -129 -76 0 -5 14 -2 31 6 17 9 32 15 34 13
5 -6 35 -67 35 -72 0 -7 -151 -126 -159 -126 -4 0 -20 13 -36 30 l-29 30 23
24 c12 13 18 26 13 30 -14 8 -55 -40 -47 -55 5 -8 4 -10 -4 -5 -7 4 -20 -2
-31 -16 -28 -33 -24 -46 5 -18 l26 24 31 -31 c35 -36 40 -22 -42 -131 -25 -34
-49 -61 -54 -61 -5 -1 -24 8 -43 20 -32 20 -33 22 -18 45 17 27 19 34 6 34
-13 0 -73 -109 -68 -123 2 -7 10 0 17 16 16 33 19 33 64 6 32 -18 34 -23 25
-42 -17 -33 -21 -35 -14 -6 5 21 2 27 -20 37 -34 16 -32 16 -48 -13 -11 -22
-15 -24 -31 -12 -18 13 -17 17 18 80 43 76 51 84 72 66 13 -10 12 -15 -2 -37
-13 -20 -14 -26 -3 -34 46 -30 45 -30 102 46 l56 74 -25 22 c-23 22 -25 23
-44 5 -19 -17 -55 -14 -48 4 2 5 27 36 57 70 51 59 55 61 73 45 18 -17 18 -18
-4 -41 l-21 -23 22 -24 23 -25 73 57 73 56 -14 29 c-11 21 -20 27 -32 22 -38
-16 -50 -16 -55 -1 -4 10 2 21 16 30 126 77 126 77 137 57 8 -16 5 -23 -16
-39 -24 -17 -25 -21 -14 -43 7 -13 14 -25 15 -27 3 -4 158 58 167 66 3 4 4 20
1 35 -5 26 -8 28 -39 22 -21 -3 -35 -2 -35 5 -1 5 -2 15 -3 22 -1 6 36 21 81
33 80 21 82 21 87 2 3 -14 -3 -22 -25 -30 -26 -10 -29 -15 -23 -42 3 -16 7
-31 8 -32 1 -1 42 4 91 10 l90 12 3 33 c3 30 1 32 -26 32 -21 0 -31 6 -35 19
-3 11 -2 22 1 25 3 3 43 6 89 6 82 0 84 -1 81 -22z m-902 -674 c-24 -58 -25
-59 -62 -57 -48 3 -57 13 -45 46 6 16 7 29 1 32 -5 3 -14 -14 -20 -37 -6 -24
-15 -58 -20 -75 -10 -41 4 -44 18 -4 10 29 11 29 51 19 38 -10 41 -13 40 -42
-2 -28 -2 -29 -6 -5 -3 17 -12 29 -26 33 -37 10 -45 7 -51 -19 -7 -26 -46 -37
-46 -12 0 14 38 148 43 154 2 2 12 0 22 -3 13 -5 15 -14 11 -36 -5 -24 -2 -30
20 -38 38 -15 37 -15 63 51 13 33 25 58 27 56 2 -2 -7 -30 -20 -63z"/>
<path d="M1458 2103 c28 -2 76 -2 105 0 28 2 5 3 -53 3 -58 0 -81 -1 -52 -3z"/>
<path d="M1435 2032 c-2 -2 1 -12 7 -22 15 -23 4 -48 -24 -60 -22 -8 -22 -9
-2 -9 29 -1 44 18 44 55 0 18 6 34 13 37 6 3 2 4 -11 4 -13 -1 -25 -3 -27 -5z"/>
<path d="M1580 2023 c0 -7 -7 -10 -15 -7 -8 4 -15 2 -15 -4 0 -5 7 -12 15 -16
17 -6 21 -36 5 -36 -5 0 -10 -5 -10 -12 0 -6 9 -3 20 7 11 10 20 25 20 34 0
19 -20 52 -20 34z"/>
<path d="M1628 2008 c-9 -7 -18 -25 -20 -39 -4 -23 -2 -27 19 -24 13 1 27 6
31 10 4 4 -3 5 -15 2 -28 -6 -28 -3 -2 34 21 30 15 38 -13 17z"/>
<path d="M1278 2000 c-15 -4 -36 -14 -47 -22 -21 -15 -21 -15 4 -38 25 -24 33
-14 15 20 -7 14 -6 20 7 24 22 9 38 -8 28 -31 -5 -10 -7 -24 -6 -30 2 -15 -13
-17 -38 -4 -13 7 -17 5 -18 -10 -1 -11 -12 -29 -25 -40 l-23 -20 23 11 c13 6
26 18 29 26 3 8 18 14 35 14 25 0 29 3 25 20 -3 13 0 20 9 21 27 3 32 4 40 12
4 4 0 7 -8 7 -24 0 -40 24 -26 38 13 13 13 13 -24 2z"/>
<path d="M1397 2004 c-16 -16 -6 -35 16 -32 12 2 22 10 22 18 0 16 -26 25 -38
14z"/>
<path d="M1670 1963 l1 -48 14 33 c13 30 13 36 0 49 -13 13 -15 9 -15 -34z"/>
<path d="M1710 1999 c16 -7 20 -13 13 -17 -15 -9 -35 -62 -24 -62 4 0 16 16
27 35 17 31 17 37 4 45 -8 5 -22 9 -30 9 -8 0 -4 -5 10 -10z"/>
<path d="M1321 1991 c-9 -6 -7 -10 8 -14 29 -7 26 -35 -4 -47 -34 -13 -32 -20
3 -11 15 4 28 15 30 24 5 24 -21 57 -37 48z"/>
<path d="M1775 1971 c6 -11 4 -13 -8 -8 -10 3 -17 2 -17 -2 0 -5 6 -12 13 -14
6 -3 2 -6 -10 -6 -13 -1 -23 -5 -23 -10 0 -17 41 -7 52 12 7 14 6 22 -3 31 -9
8 -10 8 -4 -3z"/>
<path d="M1826 1912 c-10 -19 -16 -36 -13 -38 7 -8 39 46 34 59 -2 7 -12 -3
-21 -21z"/>
<path d="M1140 1886 c0 -14 5 -28 10 -31 6 -4 7 -11 4 -17 -5 -7 -2 -8 5 -3 9
5 10 10 2 18 -14 14 -14 30 0 21 8 -4 8 0 0 15 -15 27 -21 27 -21 -3z"/>
<path d="M1895 1882 c0 -18 -8 -30 -25 -39 -22 -11 -23 -13 -4 -13 11 0 25 5
31 11 9 9 11 7 7 -8 -3 -12 0 -24 7 -28 8 -6 10 -4 4 5 -5 8 -1 18 10 27 17
12 17 13 2 13 -11 0 -17 8 -17 24 0 14 -4 27 -8 30 -4 2 -8 -7 -7 -22z"/>
<path d="M1454 1856 c-90 -40 -108 -157 -33 -220 87 -74 219 -18 219 92 0 106
-92 169 -186 128z m123 -27 c46 -28 61 -103 31 -155 -17 -28 -53 -53 -86 -60
-24 -5 -77 18 -102 45 -36 37 -36 116 1 152 46 47 101 53 156 18z"/>
<path d="M1518 1793 c-7 -28 32 -63 70 -63 24 1 24 2 -11 15 -21 7 -41 16 -44
18 -9 10 8 28 19 21 7 -4 8 -2 4 5 -4 6 -11 9 -16 6 -4 -3 -10 0 -12 7 -3 7
-7 3 -10 -9z"/>
<path d="M1444 1793 c4 -8 2 -13 -6 -13 -10 0 -10 -2 1 -9 7 -5 21 -7 30 -6 9
2 19 4 24 4 4 1 7 9 7 19 -1 16 -1 16 -11 -1 -10 -18 -11 -18 -32 0 -11 10
-17 12 -13 6z"/>
<path d="M1545 1713 c3 -3 -2 -15 -12 -25 -9 -10 -13 -21 -10 -25 4 -3 7 0 7
7 0 9 5 7 15 -6 15 -19 15 -19 8 1 -6 18 -5 19 13 5 18 -14 18 -14 2 5 -9 11
-17 24 -16 28 0 5 -3 11 -6 13 -3 2 -4 1 -1 -3z"/>
<path d="M1955 1828 c0 -25 -5 -33 -25 -39 -22 -6 -22 -7 -4 -8 31 -1 54 29
43 57 -11 30 -14 28 -14 -10z"/>
<path d="M1097 1811 c6 -22 -14 -38 -29 -23 -10 10 -48 -14 -48 -31 0 -5 8 -1
17 9 20 20 32 1 13 -21 -9 -11 -9 -15 -1 -15 6 0 15 8 18 18 4 9 15 23 25 30
19 14 24 37 9 46 -5 4 -7 -2 -4 -13z"/>
<path d="M1984 1790 c-27 -10 -38 -26 -24 -35 5 -3 10 -2 10 4 0 6 9 15 21 21
18 10 20 9 17 -11 -2 -15 -12 -26 -28 -30 -21 -6 -22 -7 -4 -8 24 -1 44 17 44
40 0 23 -10 28 -36 19z"/>
<path d="M1441 1583 c38 -48 108 -113 122 -113 9 0 27 4 41 10 24 9 29 6 52
-29 32 -49 73 -66 144 -63 56 3 56 3 89 -43 21 -29 49 -52 79 -66 42 -20 51
-20 97 -9 27 7 60 18 72 26 26 16 33 17 33 5 0 -15 -123 -72 -168 -78 -71 -10
-110 4 -168 59 -30 28 -56 49 -58 47 -5 -5 -69 -99 -80 -116 -13 -23 3 -14 45
24 28 26 44 34 53 27 90 -68 109 -76 181 -71 70 4 151 31 181 62 18 17 34 20
34 5 0 -5 -6 -10 -14 -10 -8 0 -26 -14 -41 -32 -26 -30 -28 -46 -14 -98 3 -11
-3 -14 -18 -12 -16 2 -23 -2 -23 -13 0 -20 41 -36 58 -23 9 8 12 5 12 -10 0
-12 5 -32 11 -45 10 -22 14 -23 52 -15 23 5 58 12 77 16 33 7 35 10 47 67 7
33 12 116 11 185 -1 69 -3 105 -5 80 -12 -174 -16 -209 -24 -205 -5 4 -6 -1
-3 -10 9 -23 -5 -86 -19 -84 -7 1 -25 -3 -40 -9 -38 -16 -52 -15 -68 4 -11 14
-10 18 6 30 45 33 55 45 55 72 0 15 5 33 11 39 14 14 -15 73 -39 80 -10 2 -29
22 -45 44 -15 22 -35 43 -45 46 -9 4 -35 18 -56 31 -51 32 -91 43 -105 29 -7
-7 -15 -6 -25 3 -9 7 -23 9 -32 6 -9 -3 -36 3 -61 14 -25 11 -56 20 -70 20
-23 0 -153 75 -153 89 0 19 -58 38 -107 35 -29 -1 -55 2 -58 7 -4 5 -13 9 -22
9 -13 0 -14 -2 -2 -17z m153 -49 c9 -23 2 -28 -29 -20 -14 4 -25 13 -25 21 0
21 46 19 54 -1z m475 -169 c28 -16 51 -34 51 -41 0 -8 -20 -15 -54 -19 -65 -8
-127 18 -152 66 l-16 31 60 -5 c39 -3 77 -14 111 -32z m147 -174 c-14 -15 -14
-20 -1 -38 13 -19 13 -22 -10 -37 -23 -15 -25 -15 -46 15 -18 25 -20 35 -10
55 6 13 19 24 30 24 10 0 25 7 32 17 13 15 14 15 17 -1 2 -10 -3 -25 -12 -35z"/>
<path d="M1379 1563 c-13 -10 -33 -25 -43 -35 -11 -10 -24 -18 -29 -18 -15 0
-77 -50 -77 -61 0 -6 -12 -26 -26 -45 -18 -23 -35 -34 -53 -34 -19 -1 -35 -12
-59 -44 -38 -50 -128 -102 -160 -92 -12 4 -33 -1 -53 -13 -19 -10 -54 -22 -79
-26 -32 -6 -40 -10 -26 -14 17 -7 17 -8 -5 -22 -43 -28 -59 -30 -59 -9 0 10 8
21 18 23 15 4 15 5 0 6 -9 0 -20 -5 -25 -11 -5 -8 -13 26 -20 82 l-12 95 4
-115 c2 -63 6 -123 10 -132 9 -23 47 -9 148 58 84 56 96 61 113 44 7 -7 23 -2
49 15 20 15 44 24 51 21 8 -3 14 -1 14 4 0 20 27 9 53 -20 15 -16 35 -30 45
-30 10 0 27 -6 37 -14 17 -12 15 -15 -26 -38 -110 -63 -183 -98 -160 -79 28
25 25 26 -25 6 -35 -14 -37 -14 -20 0 11 8 16 15 12 15 -12 0 -70 -31 -88 -48
-16 -14 -20 -13 -37 2 -16 15 -23 16 -42 6 -18 -10 -23 -9 -31 4 -6 10 -22 16
-43 16 -28 0 -35 -4 -35 -19 0 -25 15 -35 75 -51 28 -7 59 -21 70 -30 30 -26
46 -33 214 -90 146 -49 232 -83 292 -114 22 -11 30 -11 60 5 23 13 45 17 71
13 29 -4 47 0 82 21 37 22 53 26 84 20 27 -4 50 0 82 14 25 11 63 21 85 21 41
0 61 14 104 70 15 20 27 24 61 23 34 -2 51 4 81 28 30 23 44 28 65 23 25 -7
25 -5 -15 35 -22 22 -41 46 -41 53 0 6 -3 8 -7 4 -5 -4 -8 -24 -8 -44 0 -41
-21 -57 -90 -67 -30 -5 -50 -18 -81 -51 -31 -33 -49 -44 -71 -44 -17 0 -50 -7
-74 -16 -24 -10 -65 -16 -91 -15 -31 1 -61 -5 -87 -19 -22 -11 -57 -20 -78
-20 -21 0 -51 -7 -66 -15 -35 -18 -92 -13 -138 11 -19 10 -115 45 -214 79
-118 40 -179 65 -177 74 1 7 -2 9 -9 5 -6 -3 -15 -1 -19 7 -12 18 60 50 125
55 57 5 177 59 218 97 16 15 27 37 27 52 0 18 5 25 20 25 19 0 20 -2 6 -35
-20 -47 -5 -85 33 -85 29 0 82 29 122 67 22 20 31 23 47 14 12 -6 41 -11 67
-11 41 0 51 5 95 46 37 35 50 42 50 29 0 -10 21 12 49 51 48 67 62 104 20 50
-15 -19 -27 -25 -41 -20 -24 7 -47 -12 -100 -84 -46 -62 -67 -61 -31 3 32 59
22 58 -13 0 -31 -53 -54 -56 -110 -11 -22 17 -35 22 -36 14 0 -7 -2 -19 -2
-25 -1 -7 -9 -21 -18 -32 -20 -23 -107 -75 -114 -68 -14 14 33 86 97 149 39
38 61 64 48 58 -13 -7 -37 -27 -52 -44 -18 -20 -30 -27 -33 -19 -4 10 -11 10
-26 2 -11 -6 -22 -8 -26 -5 -3 4 -16 -4 -29 -16 -13 -12 -23 -17 -23 -12 0 23
59 64 113 78 31 8 62 18 69 22 6 4 24 9 41 10 17 2 50 15 74 29 43 26 61 46
22 24 -20 -10 -19 -8 5 23 14 19 26 37 26 41 0 15 -34 -4 -77 -44 -36 -34 -72
-55 -137 -79 -58 -22 -106 -48 -139 -77 -28 -23 -52 -41 -54 -39 -2 2 6 21 18
42 11 21 23 50 25 64 20 121 25 130 83 167 58 36 117 90 109 98 -2 3 -15 -3
-29 -12z m181 -128 c0 -10 -74 -87 -94 -97 -12 -6 4 15 34 46 54 55 60 61 60
51z m-370 -105 c0 -23 -26 -90 -35 -90 -3 0 -17 7 -30 16 -32 21 -32 47 1 73
35 27 64 27 64 1z"/>
<path d="M297 1523 c-6 -36 9 -93 25 -93 4 0 12 9 18 21 10 17 9 20 -5 17 -11
-2 -21 6 -26 20 -5 12 -6 22 -3 22 2 0 8 -10 13 -22 8 -22 8 -22 26 5 20 31
14 47 -10 27 -9 -7 -15 -9 -14 -4 4 20 -2 44 -10 44 -4 0 -11 -17 -14 -37z"/>
<path d="M2677 1513 c-4 -3 -7 -14 -7 -24 0 -12 -5 -16 -15 -13 -8 4 -15 2
-15 -4 0 -10 24 -33 31 -29 2 1 -2 -3 -9 -9 -10 -9 -9 -16 7 -35 l19 -23 5 39
c9 68 1 116 -16 98z"/>
<path d="M281 1430 c0 -14 6 -33 13 -43 13 -17 15 -17 35 4 12 13 21 26 21 31
0 11 -18 10 -25 -2 -10 -16 -21 -12 -33 13 l-11 22 0 -25z"/>
<path d="M1317 1412 c-9 -10 -23 -34 -31 -53 -8 -20 -22 -42 -31 -49 -9 -7
-25 -27 -37 -44 -17 -25 -12 -22 25 14 26 24 47 49 47 56 0 6 11 28 25 49 28
40 29 57 2 27z"/>
<path d="M260 1388 c0 -13 13 -38 29 -55 16 -18 26 -34 23 -37 -3 -3 -15 6
-28 21 -13 15 -26 25 -29 21 -7 -7 16 -58 27 -58 4 0 8 -5 8 -11 0 -8 -4 -8
-14 0 -26 21 -26 -5 -1 -29 27 -25 35 -51 10 -30 -9 7 -18 11 -20 8 -9 -9 7
-38 26 -49 16 -8 19 -6 19 11 0 11 4 20 9 20 10 0 23 42 15 49 -3 3 -9 -1 -14
-9 -5 -8 -12 -11 -16 -7 -4 4 1 16 11 27 11 12 15 28 12 41 -3 12 -1 31 4 41
14 26 2 36 -14 14 -13 -17 -15 -16 -27 13 -16 40 -30 49 -30 19z"/>
<path d="M1613 1378 c-17 -18 -41 -53 -53 -78 -13 -25 -32 -58 -42 -73 -11
-16 -18 -30 -15 -33 6 -6 47 50 47 63 0 6 23 42 50 81 28 40 49 72 47 72 -2 0
-17 -15 -34 -32z"/>
<path d="M2700 1390 c-9 -17 -14 -19 -26 -9 -23 19 -29 1 -7 -24 11 -12 24
-29 28 -37 8 -13 7 -13 -8 -1 -22 18 -32 9 -18 -17 7 -13 7 -22 1 -24 -6 -2
-4 -15 5 -32 19 -35 19 -40 1 -33 -11 5 -13 1 -7 -14 4 -11 10 -20 14 -20 13
1 60 61 53 68 -3 4 -13 -2 -21 -13 -12 -16 -14 -17 -15 -3 0 9 6 19 14 22 15
6 29 47 16 47 -5 0 -16 -10 -24 -22 -9 -12 -18 -19 -22 -16 -3 4 6 19 20 35
26 28 35 63 16 63 -5 0 -10 -7 -10 -17 0 -9 -3 -13 -6 -10 -4 4 -1 20 6 37 15
36 7 52 -10 20z"/>
<path d="M175 1350 c-9 -14 5 -74 15 -63 13 13 16 66 3 70 -6 2 -14 -1 -18 -7z"/>
<path d="M2785 1320 c-7 -23 2 -60 16 -60 12 0 12 67 0 75 -5 3 -12 -4 -16
-15z"/>
<path d="M140 1298 c0 -14 13 -42 29 -62 l29 -36 11 31 c6 18 11 39 11 48 -1
15 -2 15 -13 0 -13 -18 -37 -14 -37 6 0 7 -7 18 -15 25 -13 10 -15 9 -15 -12z"/>
<path d="M81 1299 c-5 -110 117 -363 176 -365 l22 0 -20 25 c-65 83 -118 176
-138 242 -29 93 -39 120 -40 98z"/>
<path d="M345 1224 c-28 -79 -36 -175 -15 -182 6 -2 10 -13 10 -23 0 -11 -4
-17 -10 -14 -5 3 -10 1 -10 -5 0 -6 -4 -8 -10 -5 -5 3 -10 20 -10 36 0 23 -4
29 -17 27 -15 -3 -17 4 -15 38 2 23 -1 45 -7 49 -6 3 -11 -1 -11 -9 0 -20 -24
-21 -40 -1 -7 8 -19 15 -26 15 -20 0 11 -47 36 -55 10 -3 21 -12 24 -21 4 -12
2 -12 -14 -4 -39 21 -20 -9 23 -37 31 -20 38 -28 24 -31 -22 -5 -12 -22 14
-22 11 0 22 -6 25 -14 3 -8 12 -12 20 -9 8 3 14 0 14 -5 0 -6 -12 -9 -26 -6
-18 3 -25 1 -22 -8 3 -7 15 -14 27 -16 13 -2 28 -17 38 -37 9 -19 20 -32 25
-29 4 3 1 15 -7 28 -9 13 -21 62 -27 109 -10 74 -9 100 7 185 10 54 16 105 13
112 -2 7 -17 -23 -33 -66z"/>
<path d="M2822 1268 c-13 -31 -22 -34 -40 -16 -16 16 -16 -11 -1 -46 l12 -25
24 30 c16 19 23 37 21 56 l-4 28 -12 -27z"/>
<path d="M2885 1253 c-13 -65 -29 -111 -52 -158 -28 -55 -91 -148 -105 -153
-4 -2 -8 -8 -8 -13 0 -6 7 -6 19 0 10 6 21 8 24 5 8 -9 86 127 108 191 21 60
37 155 26 155 -4 0 -9 -12 -12 -27z"/>
<path d="M2620 1259 c1 -8 7 -43 15 -79 8 -36 14 -87 15 -113 0 -58 20 -60 33
-4 7 30 3 51 -23 119 -34 88 -40 100 -40 77z"/>
<path d="M160 1208 c0 -8 16 -28 34 -45 37 -32 46 -28 46 22 0 31 -18 42 -22
14 l-3 -21 -27 22 c-20 15 -28 18 -28 8z"/>
<path d="M2707 1180 c-21 -25 -22 -41 -2 -34 14 6 31 42 23 49 -2 3 -12 -5
-21 -15z"/>
<path d="M2811 1186 c-16 -19 -38 -21 -44 -3 -3 8 -7 6 -12 -5 -8 -21 0 -48
14 -48 18 0 64 46 60 59 -4 10 -8 9 -18 -3z"/>
<path d="M2792 1124 c-12 -8 -22 -12 -22 -7 0 4 -5 1 -10 -7 -8 -13 -10 -12
-10 3 0 9 -5 17 -11 17 -6 0 -10 -16 -9 -37 3 -53 1 -60 -10 -43 -7 11 -11 4
-16 -28 -4 -23 -10 -42 -15 -42 -5 0 -9 5 -9 10 0 6 -5 9 -12 8 -7 -2 -18 -25
-24 -53 -7 -27 -15 -61 -19 -75 -7 -24 -6 -23 14 4 11 17 32 36 48 44 21 11
24 17 13 21 -25 10 -22 31 4 31 14 0 28 5 31 10 3 6 1 10 -4 10 -21 0 -10 20
19 35 30 16 43 39 15 29 -11 -5 -13 -2 -9 10 3 8 13 18 22 21 17 5 47 44 40
51 -2 2 -14 -3 -26 -12z"/>
<path d="M627 1008 c-25 -9 -27 -14 -22 -39 8 -34 -15 -49 -42 -28 -14 12 -15
11 -8 -11 10 -34 9 -34 44 -16 26 14 30 20 25 45 -4 21 -2 30 11 34 12 5 22
-6 40 -48 35 -79 39 -101 20 -108 -10 -5 -19 1 -27 18 -13 28 -16 29 -53 15
-20 -8 -25 -15 -20 -28 13 -36 77 -143 82 -139 3 3 -12 35 -32 71 -20 36 -34
70 -30 76 11 18 35 11 47 -15 10 -23 12 -23 39 -9 16 8 29 18 29 22 0 11 -61
156 -69 163 -3 4 -19 2 -34 -3z"/>
<path d="M510 979 c1 -28 69 -182 116 -259 54 -90 67 -96 122 -53 l35 26 19
-23 c10 -12 21 -20 24 -17 3 3 -13 31 -37 62 -41 55 -68 70 -35 19 17 -24 17
-26 -1 -39 -37 -28 -63 -39 -72 -29 -13 13 -111 184 -111 193 0 5 19 15 43 25
39 15 43 15 54 0 7 -9 14 -22 16 -28 2 -6 7 -9 10 -6 7 7 -45 130 -56 130 -5
0 -6 -7 -3 -15 3 -8 9 -22 12 -29 4 -10 -6 -20 -31 -30 -56 -24 -64 -21 -71
24 -6 39 -34 79 -34 49z"/>
<path d="M2082 940 c-12 -5 -39 -23 -60 -39 -20 -16 -50 -32 -67 -34 l-30 -4
32 -2 c23 -1 42 8 68 31 20 17 58 37 83 44 29 8 37 13 22 13 -14 0 -35 -4 -48
-9z"/>
<path d="M256 922 c-11 -10 -6 -20 27 -52 23 -24 27 -31 12 -26 -40 14 -73 18
-79 8 -11 -18 22 -33 73 -34 32 -1 56 -7 64 -16 10 -13 7 -14 -25 -8 -22 4
-39 2 -43 -4 -8 -13 8 -19 71 -23 33 -3 63 -12 83 -27 18 -12 34 -20 37 -17 5
5 -45 87 -53 87 -2 0 -2 -4 2 -9 3 -5 1 -12 -5 -16 -5 -3 -24 17 -42 44 -30
49 -46 66 -35 38 3 -8 2 -20 -3 -27 -5 -8 -12 0 -20 26 -7 22 -16 43 -21 48
-11 12 -35 16 -43 8z"/>
<path d="M2700 906 c-6 -6 -10 -16 -10 -24 0 -7 -5 -23 -12 -35 -11 -21 -11
-21 -18 -2 -6 17 -9 15 -25 -18 -20 -42 -31 -52 -40 -36 -4 6 -17 -4 -32 -26
-14 -20 -23 -38 -21 -41 2 -2 20 7 39 20 19 13 49 23 67 24 42 1 72 11 72 24
0 6 -14 8 -37 3 -33 -6 -35 -5 -24 9 8 10 29 16 55 16 23 0 51 6 62 14 18 14
18 15 1 22 -10 3 -29 2 -43 -5 -43 -19 -50 -12 -16 15 17 14 32 32 32 39 0 15
-35 16 -50 1z"/>
<path d="M2025 820 c-16 -11 -38 -20 -47 -20 -10 0 -18 -4 -18 -10 0 -14 5
-13 52 11 31 16 52 20 84 15 50 -6 69 9 23 18 -48 9 -62 7 -94 -14z"/>
<path d="M1088 825 c-2 -3 -40 -12 -84 -21 -86 -18 -158 -49 -149 -65 4 -5 17
-1 31 10 29 22 64 35 146 51 32 6 60 16 63 21 6 9 2 12 -7 4z"/>
<path d="M1606 763 c-16 -3 -44 -16 -61 -29 -18 -13 -45 -25 -61 -25 -27 -2
-27 -2 -4 -6 14 -3 45 5 75 20 27 14 61 30 75 36 26 10 23 11 -24 4z"/>
<path d="M1935 760 c-3 -5 -18 -11 -33 -11 -21 -1 -23 -2 -7 -7 20 -5 20 -5 0
-13 -20 -8 -20 -8 0 -8 17 -1 18 -3 5 -12 -13 -9 -13 -10 0 -6 8 2 15 9 15 16
0 7 11 21 25 31 14 11 20 20 13 20 -6 0 -15 -4 -18 -10z"/>
<path d="M948 738 c-16 -5 -28 -14 -28 -19 0 -6 4 -8 9 -4 5 3 13 0 16 -5 11
-19 57 -32 65 -20 4 6 29 15 56 20 l49 9 -60 -4 c-34 -2 -72 -1 -85 2 l-25 7
30 12 c35 15 13 17 -27 2z"/>
<path d="M1360 720 c-12 -8 -11 -10 8 -10 34 0 26 -18 -10 -23 -26 -4 -25 -5
9 -4 22 1 49 -5 58 -13 16 -13 16 -15 -2 -21 -13 -5 -7 -8 20 -8 20 -1 37 4
37 9 0 6 -4 10 -10 10 -5 0 -27 16 -47 35 -41 39 -42 39 -63 25z"/>
<path d="M1207 704 c-4 -4 -37 -7 -74 -6 l-68 0 53 -9 c28 -5 78 -18 109 -29
32 -11 59 -20 62 -20 7 0 -44 36 -64 45 -15 7 -3 11 50 15 l70 6 -66 2 c-36 1
-69 -1 -72 -4z"/>
<path d="M1028 673 c20 -8 14 -22 -20 -44 -28 -17 -29 -19 -8 -13 14 4 36 14
49 22 22 15 22 16 5 29 -10 7 -23 13 -28 12 -6 0 -5 -3 2 -6z"/>
<path d="M1768 667 c-16 -6 -28 -14 -28 -19 0 -4 -12 -8 -27 -9 -16 0 -44 -7
-63 -14 -35 -13 -35 -13 23 -9 32 2 62 6 67 9 5 3 11 -1 14 -7 3 -8 4 -6 3 3
-1 9 9 26 23 37 28 24 27 25 -12 9z"/>
<path d="M1815 655 l-30 -13 30 -2 c26 -1 27 -3 10 -10 -23 -10 -5 -13 19 -4
9 3 13 10 10 16 -4 5 8 8 28 5 18 -2 24 -2 13 1 -20 4 -20 4 0 13 16 6 13 8
-15 8 -19 0 -48 -6 -65 -14z"/>
<path d="M1108 653 c12 -2 22 -11 22 -18 0 -19 -37 -38 -61 -32 -10 3 -17 1
-13 -4 3 -5 -3 -9 -12 -9 -10 0 -15 -2 -12 -5 9 -9 86 11 114 30 20 13 23 19
13 31 -6 8 -26 13 -43 13 -23 -1 -25 -3 -8 -6z"/>
<path d="M2285 620 c-16 -7 -13 -9 15 -8 19 0 49 4 65 8 27 7 26 8 -15 8 -25
0 -54 -3 -65 -8z"/>
<path d="M611 616 c10 -9 139 -15 134 -6 -3 6 -36 10 -72 10 -37 0 -64 -2 -62
-4z"/>
<path d="M880 605 c-7 -9 -10 -19 -6 -22 4 -4 11 -1 16 7 7 11 15 9 47 -13 76
-53 93 -71 84 -86 -8 -12 -14 -13 -36 -3 -29 13 -61 0 -49 -20 4 -5 11 -5 18
1 9 8 18 6 32 -4 26 -20 27 -19 47 14 l17 29 -42 34 c-108 87 -108 87 -128 63z"/>
<path d="M1240 599 c-14 -10 -56 -26 -95 -34 l-70 -14 60 5 c60 6 135 36 135
54 0 13 0 13 -30 -11z"/>
<path d="M1495 609 c-16 -5 -50 -14 -74 -19 -23 -6 -41 -13 -39 -15 2 -2 39 5
83 15 46 11 81 15 83 9 2 -5 8 -9 14 -9 6 0 6 6 -2 15 -14 17 -21 17 -65 4z"/>
<path d="M2050 569 c-36 -28 -66 -55 -68 -59 -2 -5 4 -20 13 -34 13 -20 21
-24 35 -16 9 5 21 6 25 2 5 -4 5 -1 0 7 -6 10 -2 12 14 6 16 -5 20 -3 15 9 -7
19 -18 20 -44 4 -15 -9 -22 -10 -31 -1 -15 15 -9 23 56 73 46 35 58 40 70 30
18 -15 20 1 3 18 -17 17 -16 17 -88 -39z"/>
<path d="M2458 590 c41 -19 42 -21 43 -67 2 -45 2 -46 8 -13 6 32 9 35 39 32
18 -1 50 -11 70 -21 27 -14 53 -18 96 -16 l59 4 -25 -25 c-13 -14 -38 -27 -54
-29 -16 -2 -46 -10 -68 -17 l-38 -14 61 -62 c33 -34 57 -62 51 -62 -21 0 -126
44 -145 60 -27 24 -89 40 -150 38 -38 -1 -41 -2 -15 -5 30 -3 79 -13 143 -30
31 -8 18 -18 -22 -18 -28 0 -47 -7 -65 -24 -14 -14 -26 -19 -26 -12 0 6 12 23
26 36 l27 25 -47 0 c-25 0 -46 -3 -46 -6 0 -14 23 -94 27 -94 3 0 18 11 35 25
46 39 68 40 177 6 105 -33 171 -39 218 -19 l28 12 -45 6 c-49 7 -99 29 -119
54 -8 9 -19 16 -25 16 -7 0 -23 11 -36 25 -24 26 -25 26 30 29 38 3 97 43 125
84 30 43 32 62 6 38 -13 -12 -40 -18 -86 -20 -59 -2 -71 0 -93 21 -17 16 -37
23 -63 23 -26 0 -39 4 -39 14 0 8 -15 16 -37 20 -63 10 -70 6 -25 -14z"/>
<path d="M523 593 c-19 -2 -33 -10 -33 -17 0 -8 -17 -16 -40 -19 -25 -3 -51
-15 -67 -31 -29 -29 -53 -35 -32 -8 11 14 11 15 -1 5 -20 -18 -111 -16 -138 3
-32 22 -27 0 9 -41 50 -57 87 -78 130 -77 45 2 48 -6 17 -35 -60 -54 -131 -93
-169 -93 -48 0 -51 -17 -5 -26 53 -9 124 1 204 30 95 33 145 34 188 1 35 -27
38 -26 48 20 4 17 9 37 11 45 4 12 -4 14 -45 12 -54 -4 -62 -12 -28 -27 12 -6
24 -16 26 -23 3 -9 -7 -7 -31 6 -46 24 -105 21 -182 -12 -33 -14 -65 -26 -70
-26 -6 0 15 27 47 60 32 32 58 63 58 68 0 8 -78 32 -108 32 -9 0 -30 11 -47
25 l-30 25 65 -1 c47 -1 76 4 105 19 22 11 52 23 67 26 25 6 28 3 37 -36 l11
-43 -5 46 c-5 49 13 79 48 79 9 0 19 5 22 10 6 10 -2 10 -62 3z"/>
<path d="M1287 580 c-10 -10 -50 -28 -88 -40 -38 -13 -68 -25 -66 -27 3 -2 33
6 68 17 61 20 119 54 109 63 -3 2 -13 -4 -23 -13z"/>
<path d="M2350 585 c0 -9 -7 -18 -15 -21 -8 -4 -12 -11 -8 -17 4 -6 0 -8 -10
-4 -9 3 -18 0 -21 -9 -8 -22 12 -17 39 11 22 21 34 55 20 55 -3 0 -5 -7 -5
-15z"/>
<path d="M656 556 c-16 -17 -25 -25 -22 -18 4 6 2 12 -4 12 -7 0 -9 -7 -6 -16
3 -9 6 -19 6 -24 0 -4 9 -6 20 -3 11 3 20 0 20 -6 0 -23 2 -26 21 -33 33 -12
21 -28 -21 -28 -30 0 -40 4 -40 16 0 8 5 12 10 9 6 -3 10 -1 10 5 0 7 -6 10
-12 8 -7 -3 -13 -13 -13 -24 0 -15 8 -20 43 -22 53 -4 66 18 31 51 -21 20 -22
22 -5 25 12 3 16 10 13 23 -3 10 -1 19 5 19 5 0 6 5 3 10 -4 6 -10 8 -15 5 -5
-3 -10 1 -12 8 -2 9 -13 3 -32 -17z"/>
<path d="M891 577 c-5 -7 -8 -23 -4 -35 4 -18 0 -24 -24 -33 -17 -5 -35 -20
-40 -32 -17 -35 -35 -108 -29 -115 9 -8 11 -3 34 63 15 44 25 60 39 60 10 0
26 11 35 25 16 23 16 25 0 44 -13 14 -13 17 -2 11 38 -21 40 -26 20 -52 -11
-14 -17 -30 -14 -35 4 -6 16 2 28 17 l22 28 29 -19 c46 -30 24 0 -32 44 -40
32 -54 38 -62 29z"/>
<path d="M2062 541 c-51 -37 -63 -65 -15 -34 23 15 25 15 39 -6 13 -17 22 -20
52 -15 l38 6 24 -69 c13 -37 26 -61 28 -52 1 9 -7 41 -18 72 -15 40 -27 57
-39 57 -28 0 -46 26 -31 45 7 8 8 15 2 15 -5 0 -15 -7 -22 -15 -10 -12 -10
-18 0 -30 20 -24 6 -28 -15 -5 -18 20 -18 21 5 45 35 37 11 30 -48 -14z"/>
<path d="M2369 563 c-6 -44 -3 -70 8 -70 7 0 9 5 6 10 -3 6 -1 7 5 3 20 -12
14 -34 -10 -38 -11 -2 -22 -11 -24 -21 -1 -10 2 -14 8 -11 6 4 17 -1 23 -10
11 -14 13 -15 19 -1 3 8 12 15 19 15 8 0 14 11 14 30 0 16 -4 27 -8 25 -4 -3
-9 2 -13 10 -3 8 0 17 6 21 7 5 8 2 3 -7 -5 -8 -4 -10 0 -6 5 4 10 15 11 24 2
10 -1 12 -8 5 -11 -11 -50 -4 -43 8 3 5 1 11 -5 15 -5 3 -10 3 -11 -2z"/>
<path d="M1610 550 c0 -6 -26 -10 -58 -10 -32 0 -62 -4 -67 -9 -6 -5 -57 -12
-115 -14 -58 -3 -123 -11 -145 -18 l-40 -12 38 -13 c27 -10 45 -10 68 -2 16 6
43 8 60 4 20 -4 28 -2 23 5 -5 8 40 10 154 8 88 -2 164 -1 168 3 11 12 -16 37
-33 31 -11 -4 -14 -2 -9 5 3 6 -2 16 -13 21 -25 14 -31 14 -31 1z m33 -33 c3
-9 -13 -12 -62 -13 -50 -1 -58 0 -33 6 18 4 36 10 39 14 11 11 51 6 56 -7z"/>
<path d="M2267 543 c-4 -3 -3 -13 2 -22 4 -9 7 -30 6 -48 -2 -24 2 -33 17 -36
13 -4 17 -10 12 -19 -4 -7 2 -5 13 5 23 20 26 47 6 47 -8 0 -12 -4 -8 -9 8
-14 -9 -21 -25 -11 -12 7 -12 10 3 16 9 3 17 14 17 23 0 14 2 14 11 1 9 -13
10 -13 6 0 -2 8 -14 16 -26 18 -14 2 -21 9 -17 17 5 15 -7 29 -17 18z"/>
<path d="M1075 467 c-17 -24 -19 -37 -7 -37 5 0 13 9 18 20 9 19 12 19 88 -15
44 -19 82 -32 85 -30 7 8 0 12 -87 49 l-82 35 -15 -22z"/>
<path d="M1847 452 c-56 -23 -84 -39 -77 -46 6 -6 14 -6 22 1 7 5 42 22 76 36
62 27 64 27 69 7 6 -22 23 -28 23 -7 0 6 -6 19 -13 28 -11 15 -21 13 -100 -19z"/>
<path d="M1100 441 c0 -10 55 -31 79 -30 9 0 -2 9 -24 19 -47 22 -55 23 -55
11z"/>
<path d="M1865 429 c-52 -22 -74 -35 -40 -26 11 3 39 11 63 17 23 6 42 15 42
20 0 13 -7 12 -65 -11z"/>
<path d="M2144 393 c4 -24 2 -31 -8 -27 -7 3 -16 -2 -19 -10 -9 -24 -26 -19
-33 9 -3 14 -12 25 -20 25 -18 0 -18 -8 1 -26 19 -20 19 -31 -1 -31 -9 0 -20
11 -25 24 -5 13 -14 21 -20 18 -7 -5 -5 -13 5 -24 18 -20 21 -35 6 -26 -5 3
-10 1 -10 -6 0 -18 -17 1 -24 26 -3 12 -4 9 -2 -7 4 -35 -10 -37 -18 -3 -4 14
-11 23 -16 20 -6 -4 -5 -14 3 -26 10 -16 9 -21 -3 -29 -28 -18 20 -11 104 15
110 34 110 34 91 76 l-16 34 5 -32z"/>
<path d="M545 381 c-6 -5 -23 -11 -39 -13 -16 -2 -31 -8 -33 -15 -3 -7 10 -6
39 4 24 9 68 19 98 23 l55 7 -55 2 c-31 0 -60 -3 -65 -8z"/>
<path d="M916 364 c-4 -9 -2 -22 4 -29 9 -10 7 -13 -7 -10 -10 2 -18 4 -18 5
0 1 -11 3 -25 6 -53 8 7 -15 114 -45 89 -25 113 -28 130 -18 12 6 24 11 27 10
13 -4 -4 44 -19 54 -15 9 -17 6 -17 -20 0 -17 -6 -32 -12 -34 -19 -7 -28 26
-14 48 7 12 7 19 1 19 -14 0 -32 -49 -24 -63 4 -8 2 -7 -7 1 -10 10 -11 19 -2
42 9 24 9 30 -3 30 -8 0 -11 -6 -7 -17 5 -12 3 -14 -7 -8 -10 6 -12 2 -8 -19
4 -17 1 -25 -6 -23 -6 2 -10 20 -8 40 2 23 -1 37 -8 37 -6 0 -9 -4 -5 -10 3
-5 3 -21 -1 -36 -7 -27 -7 -27 -15 -6 -5 12 -5 30 -2 39 4 11 3 14 -5 9 -7 -4
-12 -2 -12 5 0 7 -3 10 -6 6 -4 -3 -2 -20 4 -36 8 -23 8 -30 -1 -28 -19 3 -27
20 -20 44 6 26 -12 32 -21 7z"/>
<path d="M1235 369 c41 -14 350 -23 400 -11 31 8 3 10 -131 11 -94 1 -200 3
-235 6 -54 4 -59 3 -34 -6z"/>
<path d="M1801 373 c-25 -3 -31 -7 -21 -13 20 -12 10 -19 -41 -28 -46 -8 -49
-15 -34 -61 5 -16 3 -22 -5 -19 -6 2 -10 6 -9 8 6 12 -23 50 -33 44 -8 -5 -7
-10 3 -18 17 -13 23 -36 9 -36 -5 0 -14 8 -19 18 -9 14 -10 13 -7 -8 1 -14 7
-25 12 -25 34 1 165 17 194 24 19 5 48 12 63 15 23 6 27 10 21 28 -5 17 -3 20
10 15 15 -6 15 -4 -1 18 -16 22 -73 47 -98 43 -5 -1 -25 -3 -44 -5z m113 -39
c3 -9 6 -23 6 -32 0 -15 -2 -15 -10 -2 -8 13 -10 12 -10 -2 0 -10 -4 -18 -10
-18 -5 0 -10 11 -10 25 0 14 -4 25 -10 25 -5 0 -7 -13 -3 -32 4 -22 3 -29 -5
-24 -7 4 -12 16 -12 27 0 10 -5 19 -11 19 -7 0 -9 -9 -5 -23 3 -15 1 -24 -7
-25 -6 -1 -29 -4 -49 -7 -20 -3 -39 -1 -43 5 -4 6 -10 8 -15 5 -4 -2 -10 6
-12 19 -4 19 -1 24 19 24 18 0 23 -6 24 -27 1 -20 2 -21 6 -6 10 47 15 50 29
15 l13 -35 -2 30 c-2 28 1 31 43 41 63 16 67 16 74 -2z"/>
<path d="M2280 352 l-45 -16 32 -6 c17 -4 43 -17 58 -28 l27 -22 -28 -11 c-83
-31 -148 -50 -160 -45 -17 7 -155 -32 -174 -48 -8 -8 -67 -23 -130 -34 -196
-35 -692 -19 -883 28 -132 33 -317 92 -317 103 0 5 7 7 15 3 49 -19 187 -57
192 -53 5 6 -81 39 -145 57 -36 9 -41 14 -32 25 7 8 30 18 53 23 l42 9 -58 13
c-31 7 -59 11 -61 9 -2 -2 -7 -27 -11 -55 l-6 -51 126 -42 c241 -80 358 -101
635 -110 367 -13 499 4 819 106 l143 45 -6 30 c-3 17 -6 43 -6 59 0 34 -12 36
-80 11z"/>
<path d="M1140 340 c0 -5 7 -10 15 -10 8 0 15 -5 15 -11 0 -5 -4 -8 -9 -4 -6
3 -6 -6 -1 -24 7 -26 6 -28 -14 -23 -14 3 -18 1 -11 -6 13 -13 181 -32 284
-32 l81 0 0 29 c0 17 -4 33 -10 36 -6 4 -7 -5 -4 -23 5 -22 2 -29 -11 -29 -12
0 -15 7 -12 24 2 13 0 26 -4 29 -5 3 -9 -9 -9 -25 0 -24 -5 -31 -19 -31 -14 0
-17 6 -14 24 3 13 -1 27 -8 31 -8 5 -10 4 -5 -4 10 -16 -3 -51 -19 -51 -8 0
-15 13 -17 33 -2 17 -7 32 -13 32 -5 0 -11 -15 -13 -32 -2 -18 -7 -33 -12 -33
-5 0 -7 15 -4 33 l5 32 -15 -30 -14 -30 -1 30 c-2 46 -12 54 -74 56 -32 1 -60
6 -63 11 -7 11 -24 10 -24 -2z m60 -51 c0 -16 -5 -29 -11 -29 -6 0 -8 7 -5 16
4 10 2 13 -6 8 -8 -5 -9 -2 -5 10 4 10 7 22 7 27 0 6 5 7 10 4 6 -3 10 -19 10
-36z m30 19 c0 -9 4 -8 10 2 8 12 10 8 11 -15 l2 -30 4 28 c6 38 27 29 31 -14
2 -26 0 -30 -8 -19 -7 11 -10 11 -10 2 0 -17 -31 -11 -47 8 -15 18 -17 50 -3
50 6 0 10 -6 10 -12z"/>
<path d="M1614 297 c-3 -9 -4 -26 -1 -37 3 -11 1 -20 -4 -20 -5 0 -9 13 -9 28
0 19 -5 29 -15 29 -11 0 -12 -4 -5 -11 5 -5 10 -19 9 -31 0 -12 -3 -15 -6 -6
-5 11 -7 11 -14 0 -6 -10 -9 -6 -9 13 0 15 -4 30 -10 33 -6 4 -7 -6 -3 -26 4
-22 3 -30 -5 -25 -6 3 -13 2 -17 -4 -4 -6 14 -10 48 -10 53 0 55 1 59 30 5 36
-8 63 -18 37z"/>
<path d="M1380 207 c0 -1 -4 -17 -9 -34 l-9 -32 68 0 c46 0 73 5 80 14 6 8 18
11 26 8 17 -6 19 13 2 23 -6 4 -14 2 -16 -4 -5 -17 -22 -15 -22 4 0 8 -5 12
-10 9 -8 -5 -8 -11 -1 -19 11 -13 5 -26 -11 -26 -5 0 -6 4 -3 10 3 5 1 18 -4
27 -9 16 -10 14 -11 -9 0 -16 -5 -28 -11 -28 -6 0 -8 8 -4 19 3 11 1 22 -5 26
-5 3 -10 -3 -10 -14 0 -34 -18 -33 -23 1 l-4 33 -1 -32 c-1 -18 -6 -33 -12
-33 -5 0 -7 13 -3 30 3 17 3 30 -1 30 -3 0 -6 -1 -6 -3z"/>
<path d="M1567 203 c-4 -3 -7 -15 -7 -25 0 -10 -10 -23 -22 -28 -17 -7 -2 -9
52 -7 l75 2 0 29 c0 26 -3 30 -31 30 -16 0 -35 -4 -42 -8 -15 -9 -16 -36 -1
-36 5 0 8 4 5 8 -2 4 0 14 6 22 8 13 9 12 5 -2 -4 -9 1 -19 10 -22 11 -4 14
-2 9 9 -3 8 -1 15 5 15 6 0 9 -8 7 -17 -2 -13 -14 -18 -40 -19 -35 -1 -36 -1
-28 27 9 30 8 34 -3 22z"/>
<path d="M1794 163 l-29 -12 30 1 c17 0 44 3 60 7 l30 7 -31 5 c-16 3 -43 -1
-60 -8z"/>
</g>
</svg>
